<svg xmlns="http://www.w3.org/2000/svg" width="24.99" height="24.83" viewBox="0 0 24.99 24.83"><defs><style>.cls-1{fill:#fff;}</style></defs><title>ico_close</title><g id="レイヤー_2" data-name="レイヤー 2"><g id="レイヤー_1-2" data-name="レイヤー 1"><g id="cancel"><path id="パス_437" data-name="パス 437" class="cls-1" d="M11.3,12.42.24,23.48a.79.79,0,0,0,0,1.12.78.78,0,0,0,1.11,0L12.5,13.45,23.65,24.6a.78.78,0,0,0,1.11-1.11L13.7,12.42,24.77,1.34A.79.79,0,0,0,23.66.23L12.5,11.39,1.34.23A.78.78,0,0,0,.23.23a.78.78,0,0,0,0,1.11Z"/></g></g></g></svg>