<svg xmlns="http://www.w3.org/2000/svg" width="52" height="52" viewBox="0 0 52 52"><defs><style>.cls-1{fill:#fff;}</style></defs><title>ico_plus01</title><g id="レイヤー_2" data-name="レイヤー 2"><g id="レイヤー_1-2" data-name="レイヤー 1"><path id="パス_395" data-name="パス 395" class="cls-1" d="M26,0A26,26,0,1,0,52,26,26,26,0,0,0,26,0Zm0,50A24,24,0,1,1,50,26,24,24,0,0,1,26,50Z"/><path id="パス_396" data-name="パス 396" class="cls-1" d="M38.5,25H27V14a1,1,0,0,0-2,0V25H13.5a1,1,0,0,0,0,2H25V39a1,1,0,0,0,2,0V27H38.5a1,1,0,0,0,0-2Z"/></g></g></svg>