<svg xmlns="http://www.w3.org/2000/svg" width="153.82" height="29.02" viewBox="0 0 153.82 29.02"><defs><style>.cls-1{fill:#fff;}</style></defs><title>logo</title><g id="レイヤー_2" data-name="レイヤー 2"><g id="レイヤー_1-2" data-name="レイヤー 1"><path class="cls-1" d="M0,12.47l1.86-2.23A6.54,6.54,0,0,0,6.13,12c1.29,0,2.07-.51,2.07-1.35v0c0-.8-.49-1.21-2.89-1.82C2.43,8,.57,7.24.57,4.4V4.35C.57,1.76,2.66,0,5.58,0A8.33,8.33,0,0,1,10.9,1.86L9.26,4.23A6.7,6.7,0,0,0,5.54,2.82c-1.21,0-1.84.55-1.84,1.25v0c0,.94.61,1.25,3.09,1.88,2.9.76,4.54,1.8,4.54,4.29v0c0,2.85-2.17,4.44-5.26,4.44A9.12,9.12,0,0,1,0,12.47"/><polygon class="cls-1" points="13.62 0.24 24.41 0.24 24.41 3.05 16.75 3.05 16.75 5.95 23.49 5.95 23.49 8.75 16.75 8.75 16.75 11.76 24.51 11.76 24.51 14.56 13.62 14.56 13.62 0.24"/><polygon class="cls-1" points="26.38 0.24 29.85 0.24 33.59 10.32 37.34 0.24 40.73 0.24 34.94 14.66 32.16 14.66 26.38 0.24"/><polygon class="cls-1" points="42.92 0.24 53.72 0.24 53.72 3.05 46.05 3.05 46.05 5.95 52.8 5.95 52.8 8.75 46.05 8.75 46.05 11.76 53.82 11.76 53.82 14.56 42.92 14.56 42.92 0.24"/><polygon class="cls-1" points="57.09 0.24 59.99 0.24 66.7 9.06 66.7 0.24 69.81 0.24 69.81 14.56 67.13 14.56 60.2 5.46 60.2 14.56 57.09 14.56 57.09 0.24"/><polygon class="cls-1" points="71.84 0.24 75.21 0.24 78.17 9.94 81.39 0.2 84.08 0.2 87.29 9.94 90.26 0.24 93.55 0.24 88.66 14.66 85.92 14.66 82.69 5.29 79.46 14.66 76.72 14.66 71.84 0.24"/><path class="cls-1" d="M93.78,7.44v0a7.61,7.61,0,0,1,15.21,0v0a7.61,7.61,0,0,1-15.21,0m11.92,0v0a4.35,4.35,0,0,0-4.34-4.5,4.28,4.28,0,0,0-4.29,4.46v0a4.35,4.35,0,0,0,4.33,4.5,4.29,4.29,0,0,0,4.3-4.46"/><path class="cls-1" d="M110.53,7.44v0a7.61,7.61,0,0,1,15.21,0v0a7.61,7.61,0,0,1-15.21,0m11.92,0v0a4.35,4.35,0,0,0-4.34-4.5,4.28,4.28,0,0,0-4.29,4.46v0a4.35,4.35,0,0,0,4.34,4.5,4.28,4.28,0,0,0,4.29-4.46"/><path class="cls-1" d="M128.09.24h5.58c4.5,0,7.61,3.09,7.61,7.12v0c0,4-3.11,7.16-7.61,7.16h-5.58Zm5.58,11.47A4.07,4.07,0,0,0,138,7.44v0a4.1,4.1,0,0,0-4.31-4.31h-2.43v8.62Z"/><path class="cls-1" d="M142.5,12.47l1.86-2.23A6.5,6.5,0,0,0,148.63,12c1.29,0,2.06-.51,2.06-1.35v0c0-.8-.49-1.21-2.88-1.82-2.88-.74-4.74-1.53-4.74-4.37V4.35c0-2.59,2.08-4.31,5-4.31a8.31,8.31,0,0,1,5.31,1.82l-1.63,2.37A6.73,6.73,0,0,0,148,2.82c-1.21,0-1.84.55-1.84,1.25v0c0,.94.61,1.25,3.08,1.88,2.91.76,4.54,1.8,4.54,4.29v0c0,2.85-2.17,4.44-5.25,4.44a9.1,9.1,0,0,1-6.07-2.29"/><rect class="cls-1" x="5.36" y="20.72" width="0.61" height="8.18"/><polygon class="cls-1" points="16.07 20.72 16.64 20.72 22.28 27.84 22.28 20.72 22.87 20.72 22.87 28.9 22.41 28.9 16.65 21.64 16.65 28.9 16.07 28.9 16.07 20.72"/><polygon class="cls-1" points="31.86 20.72 32.54 20.72 35.74 28.25 38.95 20.72 39.59 20.72 36 28.96 35.46 28.96 31.86 20.72"/><polygon class="cls-1" points="49.14 20.72 54.96 20.72 54.96 21.29 49.75 21.29 49.75 24.5 54.44 24.5 54.44 25.06 49.75 25.06 49.75 28.34 55.02 28.34 55.02 28.9 49.14 28.9 49.14 20.72"/><path class="cls-1" d="M64.79,27.71l.39-.45a4,4,0,0,0,2.94,1.21c1.22,0,2.07-.69,2.07-1.62v0c0-.86-.46-1.36-2.32-1.74s-2.76-1.06-2.76-2.3v0a2.36,2.36,0,0,1,2.63-2.15,4.07,4.07,0,0,1,2.81,1l-.39.48a3.49,3.49,0,0,0-2.44-.92c-1.2,0-2,.69-2,1.54v0c0,.87.45,1.39,2.39,1.79s2.68,1.06,2.68,2.26v0c0,1.32-1.13,2.23-2.71,2.23a4.62,4.62,0,0,1-3.29-1.31"/><polygon class="cls-1" points="82.53 21.29 79.67 21.29 79.67 20.72 85.99 20.72 85.99 21.29 83.13 21.29 83.13 28.9 82.53 28.9 82.53 21.29"/><polygon class="cls-1" points="95.53 20.72 96.1 20.72 99.39 25.56 102.67 20.72 103.24 20.72 103.24 28.9 102.64 28.9 102.64 21.8 99.4 26.51 99.35 26.51 96.11 21.8 96.11 28.9 95.53 28.9 95.53 20.72"/><polygon class="cls-1" points="113.45 20.72 119.27 20.72 119.27 21.29 114.06 21.29 114.06 24.5 118.75 24.5 118.75 25.06 114.06 25.06 114.06 28.34 119.33 28.34 119.33 28.9 113.45 28.9 113.45 20.72"/><polygon class="cls-1" points="128.88 20.72 129.45 20.72 135.09 27.84 135.09 20.72 135.68 20.72 135.68 28.9 135.22 28.9 129.46 21.64 129.46 28.9 128.88 28.9 128.88 20.72"/><polygon class="cls-1" points="147.85 21.29 145 21.29 145 20.72 151.31 20.72 151.31 21.29 148.46 21.29 148.46 28.9 147.85 28.9 147.85 21.29"/></g></g></svg>